<svg xmlns="http://www.w3.org/2000/svg" xmlns:xlink="http://www.w3.org/1999/xlink" width="1080" zoomAndPan="magnify" viewBox="0 0 810 809.999993" height="1080" preserveAspectRatio="xMidYMid meet" version="1.0"><rect x="-81" width="972" fill="#ffffff" y="-80.999999" height="971.999992" fill-opacity="1"/><rect x="-81" width="972" fill="#ffffff" y="-80.999999" height="971.999992" fill-opacity="1"/><path fill="#00bf63" d="M 509.757812 334.5 C 617.421875 246.882812 709.792969 141.539062 782.699219 22.679688 C 784.277344 20.109375 783.804688 16.785156 781.574219 14.753906 C 779.347656 12.722656 775.988281 12.566406 773.578125 14.375 C 748.316406 33.320312 708.777344 60.921875 668.886719 80.585938 C 617.316406 106.011719 561.902344 116.390625 533.898438 120.289062 C 522.09375 121.929688 511.585938 128.609375 505.078125 138.589844 C 491.300781 159.730469 464.597656 199.347656 430.171875 244.03125 C 446.109375 263.847656 463.316406 284.148438 481.347656 303.769531 C 491.25 314.542969 500.710938 324.773438 509.757812 334.5 Z M 509.757812 334.5 " fill-opacity="1" fill-rule="nonzero"/><path fill="#00bf63" d="M 304.292969 388.085938 C 258.683594 436.597656 226.4375 469.328125 207.875 487.808594 L 199.484375 479.414062 C 189.183594 469.121094 172.492188 469.121094 162.1875 479.414062 C 151.890625 489.710938 151.890625 506.410156 162.1875 516.710938 L 165.894531 520.414062 C 156.40625 519.480469 146.597656 522.640625 139.335938 529.902344 C 130.8125 538.425781 127.96875 550.449219 130.730469 561.339844 C 119.835938 558.574219 107.816406 561.421875 99.292969 569.941406 C 90.769531 578.464844 87.921875 590.488281 90.6875 601.378906 C 79.796875 598.617188 67.773438 601.460938 59.25 609.980469 C 51.363281 617.867188 48.335938 628.753906 50.113281 638.96875 L 45.015625 633.871094 C 34.714844 623.578125 18.023438 623.578125 7.722656 633.871094 C -2.578125 644.171875 -2.578125 660.867188 7.722656 671.167969 L 118.984375 782.429688 C 123.226562 786.667969 128.785156 789.335938 134.746094 789.992188 L 195.785156 796.71875 C 196.765625 796.824219 197.738281 796.878906 198.703125 796.878906 C 211.96875 796.878906 223.394531 786.886719 224.878906 773.394531 C 226.476562 758.917969 216.035156 745.886719 201.554688 744.296875 L 149.730469 738.585938 L 112.171875 701.027344 C 114.050781 701.355469 115.949219 701.542969 117.847656 701.542969 C 126.285156 701.542969 134.71875 698.320312 141.15625 691.886719 C 149.679688 683.363281 152.527344 671.34375 149.761719 660.453125 C 152.429688 661.128906 155.15625 661.503906 157.890625 661.503906 C 166.328125 661.503906 174.765625 658.285156 181.199219 651.847656 C 189.722656 643.328125 192.570312 631.304688 189.804688 620.410156 C 192.472656 621.085938 195.199219 621.460938 197.933594 621.460938 C 206.367188 621.460938 214.804688 618.242188 221.242188 611.804688 C 228.507812 604.542969 231.664062 594.730469 230.730469 585.25 L 238.152344 592.667969 L 243.863281 644.496094 C 245.347656 657.992188 256.773438 667.980469 270.042969 667.980469 C 271.007812 667.980469 271.980469 667.925781 272.960938 667.820312 C 287.4375 666.222656 297.882812 653.195312 296.285156 638.722656 L 289.5625 577.6875 C 288.90625 571.726562 286.234375 566.167969 282 561.925781 L 266.597656 546.527344 L 374.734375 438.390625 C 350.699219 422.4375 327.203125 405.648438 304.292969 388.085938 Z M 304.292969 388.085938 " fill-opacity="1" fill-rule="nonzero"/><path fill="#00bf63" d="M 802.277344 633.875 C 791.976562 623.582031 775.285156 623.582031 764.980469 633.875 L 759.886719 638.96875 C 761.664062 628.757812 758.632812 617.871094 750.746094 609.984375 C 742.222656 601.460938 730.203125 598.617188 719.308594 601.382812 C 722.074219 590.488281 719.230469 578.464844 710.707031 569.945312 C 702.183594 561.421875 690.164062 558.578125 679.273438 561.339844 C 682.035156 550.449219 679.191406 538.425781 670.667969 529.902344 C 667.59375 526.824219 664.046875 524.503906 660.273438 522.894531 C 655.140625 520.710938 649.574219 519.875 644.105469 520.414062 L 647.816406 516.707031 C 658.113281 506.410156 658.113281 489.710938 647.816406 479.410156 C 637.515625 469.117188 620.820312 469.117188 610.519531 479.410156 L 602.125 487.804688 C 576.984375 462.773438 526.78125 411.652344 452.226562 330.53125 C 383.824219 256.109375 327.324219 172.945312 304.925781 138.589844 C 298.417969 128.605469 287.90625 121.925781 276.105469 120.28125 C 248.101562 116.386719 192.6875 106.007812 141.113281 80.582031 C 101.222656 60.921875 61.683594 33.320312 36.417969 14.375 C 35.300781 13.535156 33.976562 13.121094 32.652344 13.121094 C 31.132812 13.121094 29.617188 13.671875 28.425781 14.757812 C 26.195312 16.789062 25.722656 20.113281 27.300781 22.683594 C 123.21875 179.0625 252.804688 312.082031 406.628906 412.050781 L 413.183594 416.308594 L 543.402344 546.527344 L 528.003906 561.929688 C 523.765625 566.167969 521.097656 571.730469 520.441406 577.691406 L 520.261719 579.324219 L 513.71875 638.726562 C 512.121094 653.203125 522.5625 666.230469 537.042969 667.824219 C 538.023438 667.933594 538.996094 667.984375 539.964844 667.984375 C 553.230469 667.984375 564.652344 657.996094 566.140625 644.5 L 569.542969 613.628906 L 581.757812 601.414062 C 583.363281 605.1875 585.683594 608.730469 588.761719 611.808594 C 595.195312 618.242188 603.632812 621.464844 612.070312 621.464844 C 614.804688 621.464844 617.535156 621.089844 620.199219 620.410156 C 617.4375 631.304688 620.277344 643.328125 628.800781 651.847656 C 635.238281 658.285156 643.675781 661.503906 652.109375 661.503906 C 654.84375 661.503906 657.570312 661.128906 660.238281 660.453125 C 657.472656 671.34375 660.320312 683.367188 668.84375 691.890625 C 675.277344 698.324219 683.714844 701.542969 692.152344 701.542969 C 694.050781 701.542969 695.949219 701.355469 697.832031 701.03125 L 660.273438 738.589844 L 608.445312 744.296875 C 593.96875 745.890625 583.527344 758.921875 585.121094 773.394531 C 586.605469 786.890625 598.03125 796.878906 611.300781 796.878906 C 612.265625 796.878906 613.238281 796.824219 614.21875 796.71875 L 675.253906 789.996094 C 681.21875 789.339844 686.773438 786.671875 691.015625 782.433594 L 802.277344 671.171875 C 812.574219 660.871094 812.574219 644.171875 802.277344 633.875 Z M 802.277344 633.875 " fill-opacity="1" fill-rule="nonzero"/></svg>